<svg xmlns="http://www.w3.org/2000/svg" width="11.85" height="10.117" viewBox="0 0 11.85 10.117">
  <g id="Group_3197" data-name="Group 3197" transform="translate(0)">
    <g id="Group_3196" data-name="Group 3196" transform="translate(0)">
      <path id="Path_2899" data-name="Path 2899" d="M86.726,341.333a1.024,1.024,0,1,0,1.185,1.012A1.1,1.1,0,0,0,86.726,341.333Z" transform="translate(-83.171 -333.239)" fill="#2e2e22"/>
      <path id="Path_2900" data-name="Path 2900" d="M4.207,5.564H8.621a1.234,1.234,0,0,0,1.037-.521L11.776,1.76a.435.435,0,0,0,.074-.243.554.554,0,0,0-.593-.506H2.5L1.935,0H0V1.012H1.185l2.13,3.837-.8,1.239a.912.912,0,0,0-.145.488A1.108,1.108,0,0,0,3.555,7.588h7.11V6.576H3.807a.137.137,0,0,1-.148-.126.107.107,0,0,1,.018-.061Z" fill="#2e2e22"/>
      <path id="Path_2901" data-name="Path 2901" d="M300.059,341.333a1.024,1.024,0,1,0,1.185,1.012A1.1,1.1,0,0,0,300.059,341.333Z" transform="translate(-290.579 -333.239)" fill="#2e2e22"/>
    </g>
  </g>
</svg>
